solid gat3_Default_sldprt
   facet normal -1.000000e+000 1.734723e-016 0.000000e+000
      outer loop
         vertex 4.500000e+000 1.050857e+001 -3.711556e+000
         vertex 4.500000e+000 2.000000e+000 -3.250000e+001
         vertex 4.500000e+000 9.902771e+000 -3.406116e+000
      endloop
   endfacet
   facet normal -1.000000e+000 1.734723e-016 0.000000e+000
      outer loop
         vertex 4.500000e+000 9.902771e+000 -3.406116e+000
         vertex 4.500000e+000 2.000000e+000 -3.250000e+001
         vertex 4.500000e+000 9.357302e+000 -3.002689e+000
      endloop
   endfacet
   facet normal -1.000000e+000 1.734723e-016 0.000000e+000
      outer loop
         vertex 4.500000e+000 1.437853e+001 -3.215989e+000
         vertex 4.500000e+000 2.200000e+001 -3.250000e+001
         vertex 4.500000e+000 1.380081e+001 -3.571703e+000
      endloop
   endfacet
   facet normal -1.000000e+000 1.734723e-016 0.000000e+000
      outer loop
         vertex 4.500000e+000 1.380081e+001 -3.571703e+000
         vertex 4.500000e+000 2.200000e+001 -3.250000e+001
         vertex 4.500000e+000 1.317129e+001 -3.824667e+000
      endloop
   endfacet
   facet normal -1.000000e+000 1.734723e-016 0.000000e+000
      outer loop
         vertex 4.500000e+000 1.437853e+001 -3.215989e+000
         vertex 4.500000e+000 1.488783e+001 -2.767756e+000
         vertex 4.500000e+000 2.200000e+001 -3.250000e+001
      endloop
   endfacet
   facet normal -1.000000e+000 1.734723e-016 0.000000e+000
      outer loop
         vertex 4.500000e+000 2.200000e+001 -3.250000e+001
         vertex 4.500000e+000 1.488783e+001 -2.767756e+000
         vertex 4.500000e+000 1.531404e+001 -2.239899e+000
      endloop
   endfacet
   facet normal -1.000000e+000 1.734723e-016 0.000000e+000
      outer loop
         vertex 4.500000e+000 2.200000e+001 -3.250000e+001
         vertex 4.500000e+000 1.531404e+001 -2.239899e+000
         vertex 4.500000e+000 1.564491e+001 -1.647605e+000
      endloop
   endfacet
   facet normal -1.000000e+000 1.734723e-016 0.000000e+000
      outer loop
         vertex 4.500000e+000 8.228490e+000 -1.332559e+000
         vertex 4.500000e+000 8.507944e+000 -1.950780e+000
         vertex 4.500000e+000 2.000000e+000 -3.250000e+001
      endloop
   endfacet
   facet normal -1.000000e+000 1.734723e-016 0.000000e+000
      outer loop
         vertex 4.500000e+000 2.000000e+000 -3.250000e+001
         vertex 4.500000e+000 8.507944e+000 -1.950780e+000
         vertex 4.500000e+000 8.887857e+000 -2.512880e+000
      endloop
   endfacet
   facet normal -1.000000e+000 1.734723e-016 0.000000e+000
      outer loop
         vertex 4.500000e+000 2.000000e+000 -3.250000e+001
         vertex 4.500000e+000 8.887857e+000 -2.512880e+000
         vertex 4.500000e+000 9.357302e+000 -3.002689e+000
      endloop
   endfacet
   facet normal -1.000000e+000 1.734723e-016 0.000000e+000
      outer loop
         vertex 4.500000e+000 1.050857e+001 -3.711556e+000
         vertex 4.500000e+000 1.115728e+001 -3.910221e+000
         vertex 4.500000e+000 2.000000e+000 -3.250000e+001
      endloop
   endfacet
   facet normal -1.000000e+000 1.734723e-016 0.000000e+000
      outer loop
         vertex 4.500000e+000 2.000000e+000 -3.250000e+001
         vertex 4.500000e+000 1.115728e+001 -3.910221e+000
         vertex 4.500000e+000 1.183023e+001 -3.996396e+000
      endloop
   endfacet
   facet normal -1.000000e+000 1.734723e-016 0.000000e+000
      outer loop
         vertex 4.500000e+000 2.000000e+000 -3.250000e+001
         vertex 4.500000e+000 1.183023e+001 -3.996396e+000
         vertex 4.500000e+000 2.200000e+001 -3.250000e+001
      endloop
   endfacet
   facet normal -1.000000e+000 1.734723e-016 0.000000e+000
      outer loop
         vertex 4.500000e+000 2.200000e+001 -3.250000e+001
         vertex 4.500000e+000 1.183023e+001 -3.996396e+000
         vertex 4.500000e+000 1.250807e+001 -3.967602e+000
      endloop
   endfacet
   facet normal -1.000000e+000 1.734723e-016 0.000000e+000
      outer loop
         vertex 4.500000e+000 2.200000e+001 -3.250000e+001
         vertex 4.500000e+000 1.250807e+001 -3.967602e+000
         vertex 4.500000e+000 1.317129e+001 -3.824667e+000
      endloop
   endfacet
   facet normal -1.000000e+000 1.734723e-016 0.000000e+000
      outer loop
         vertex 4.500000e+000 1.488783e+001 2.767756e+000
         vertex 4.500000e+000 1.437853e+001 3.215989e+000
         vertex 4.500000e+000 2.200000e+001 3.250000e+001
      endloop
   endfacet
   facet normal -1.000000e+000 1.734723e-016 0.000000e+000
      outer loop
         vertex 4.500000e+000 2.000000e+000 3.250000e+001
         vertex 4.500000e+000 2.200000e+001 3.250000e+001
         vertex 4.500000e+000 1.250807e+001 3.967602e+000
      endloop
   endfacet
   facet normal -1.000000e+000 1.734723e-016 0.000000e+000
      outer loop
         vertex 4.500000e+000 1.564491e+001 -1.647605e+000
         vertex 4.500000e+000 1.587093e+001 -1.007912e+000
         vertex 4.500000e+000 2.200000e+001 -3.250000e+001
      endloop
   endfacet
   facet normal -1.000000e+000 1.734723e-016 0.000000e+000
      outer loop
         vertex 4.500000e+000 2.200000e+001 -3.250000e+001
         vertex 4.500000e+000 1.587093e+001 -1.007912e+000
         vertex 4.500000e+000 1.598559e+001 -3.392237e-001
      endloop
   endfacet
   facet normal -1.000000e+000 1.734723e-016 0.000000e+000
      outer loop
         vertex 4.500000e+000 2.200000e+001 -3.250000e+001
         vertex 4.500000e+000 1.598559e+001 -3.392237e-001
         vertex 4.500000e+000 2.200000e+001 3.250000e+001
      endloop
   endfacet
   facet normal -1.000000e+000 1.734723e-016 0.000000e+000
      outer loop
         vertex 4.500000e+000 2.200000e+001 3.250000e+001
         vertex 4.500000e+000 1.598559e+001 -3.392237e-001
         vertex 4.500000e+000 1.598559e+001 3.392237e-001
      endloop
   endfacet
   facet normal -1.000000e+000 1.734723e-016 0.000000e+000
      outer loop
         vertex 4.500000e+000 2.200000e+001 3.250000e+001
         vertex 4.500000e+000 1.598559e+001 3.392237e-001
         vertex 4.500000e+000 1.587093e+001 1.007912e+000
      endloop
   endfacet
   facet normal -1.000000e+000 1.734723e-016 0.000000e+000
      outer loop
         vertex 4.500000e+000 1.250807e+001 3.967602e+000
         vertex 4.500000e+000 1.183023e+001 3.996396e+000
         vertex 4.500000e+000 2.000000e+000 3.250000e+001
      endloop
   endfacet
   facet normal -1.000000e+000 1.734723e-016 0.000000e+000
      outer loop
         vertex 4.500000e+000 2.000000e+000 3.250000e+001
         vertex 4.500000e+000 1.183023e+001 3.996396e+000
         vertex 4.500000e+000 1.115728e+001 3.910221e+000
      endloop
   endfacet
   facet normal -1.000000e+000 1.734723e-016 0.000000e+000
      outer loop
         vertex 4.500000e+000 2.000000e+000 3.250000e+001
         vertex 4.500000e+000 1.115728e+001 3.910221e+000
         vertex 4.500000e+000 1.050857e+001 3.711556e+000
      endloop
   endfacet
   facet normal -1.000000e+000 1.734723e-016 0.000000e+000
      outer loop
         vertex 4.500000e+000 8.228490e+000 1.332559e+000
         vertex 4.500000e+000 2.000000e+000 3.250000e+001
         vertex 4.500000e+000 8.507944e+000 1.950780e+000
      endloop
   endfacet
   facet normal -1.000000e+000 1.734723e-016 0.000000e+000
      outer loop
         vertex 4.500000e+000 8.507944e+000 1.950780e+000
         vertex 4.500000e+000 2.000000e+000 3.250000e+001
         vertex 4.500000e+000 8.887857e+000 2.512880e+000
      endloop
   endfacet
   facet normal -1.000000e+000 1.734723e-016 0.000000e+000
      outer loop
         vertex 4.500000e+000 8.228490e+000 1.332559e+000
         vertex 4.500000e+000 8.057536e+000 6.760033e-001
         vertex 4.500000e+000 2.000000e+000 3.250000e+001
      endloop
   endfacet
   facet normal -1.000000e+000 1.734723e-016 0.000000e+000
      outer loop
         vertex 4.500000e+000 2.000000e+000 3.250000e+001
         vertex 4.500000e+000 8.057536e+000 6.760033e-001
         vertex 4.500000e+000 8.000000e+000 0.000000e+000
      endloop
   endfacet
   facet normal -1.000000e+000 1.734723e-016 0.000000e+000
      outer loop
         vertex 4.500000e+000 2.000000e+000 3.250000e+001
         vertex 4.500000e+000 8.000000e+000 0.000000e+000
         vertex 4.500000e+000 2.000000e+000 -3.250000e+001
      endloop
   endfacet
   facet normal -1.000000e+000 1.734723e-016 0.000000e+000
      outer loop
         vertex 4.500000e+000 2.000000e+000 -3.250000e+001
         vertex 4.500000e+000 8.000000e+000 0.000000e+000
         vertex 4.500000e+000 8.057536e+000 -6.760033e-001
      endloop
   endfacet
   facet normal -1.000000e+000 1.734723e-016 0.000000e+000
      outer loop
         vertex 4.500000e+000 2.000000e+000 -3.250000e+001
         vertex 4.500000e+000 8.057536e+000 -6.760033e-001
         vertex 4.500000e+000 8.228490e+000 -1.332559e+000
      endloop
   endfacet
   facet normal -1.000000e+000 1.734723e-016 0.000000e+000
      outer loop
         vertex 4.500000e+000 1.587093e+001 1.007912e+000
         vertex 4.500000e+000 1.564491e+001 1.647605e+000
         vertex 4.500000e+000 2.200000e+001 3.250000e+001
      endloop
   endfacet
   facet normal -1.000000e+000 1.734723e-016 0.000000e+000
      outer loop
         vertex 4.500000e+000 2.200000e+001 3.250000e+001
         vertex 4.500000e+000 1.564491e+001 1.647605e+000
         vertex 4.500000e+000 1.531404e+001 2.239899e+000
      endloop
   endfacet
   facet normal -1.000000e+000 1.734723e-016 0.000000e+000
      outer loop
         vertex 4.500000e+000 2.200000e+001 3.250000e+001
         vertex 4.500000e+000 1.531404e+001 2.239899e+000
         vertex 4.500000e+000 1.488783e+001 2.767756e+000
      endloop
   endfacet
   facet normal -1.000000e+000 1.734723e-016 0.000000e+000
      outer loop
         vertex 4.500000e+000 1.437853e+001 3.215989e+000
         vertex 4.500000e+000 1.380081e+001 3.571703e+000
         vertex 4.500000e+000 2.200000e+001 3.250000e+001
      endloop
   endfacet
   facet normal -1.000000e+000 1.734723e-016 0.000000e+000
      outer loop
         vertex 4.500000e+000 2.200000e+001 3.250000e+001
         vertex 4.500000e+000 1.380081e+001 3.571703e+000
         vertex 4.500000e+000 1.317129e+001 3.824667e+000
      endloop
   endfacet
   facet normal -1.000000e+000 1.734723e-016 0.000000e+000
      outer loop
         vertex 4.500000e+000 2.200000e+001 3.250000e+001
         vertex 4.500000e+000 1.317129e+001 3.824667e+000
         vertex 4.500000e+000 1.250807e+001 3.967602e+000
      endloop
   endfacet
   facet normal -1.000000e+000 1.734723e-016 0.000000e+000
      outer loop
         vertex 4.500000e+000 1.050857e+001 3.711556e+000
         vertex 4.500000e+000 9.902771e+000 3.406116e+000
         vertex 4.500000e+000 2.000000e+000 3.250000e+001
      endloop
   endfacet
   facet normal -1.000000e+000 1.734723e-016 0.000000e+000
      outer loop
         vertex 4.500000e+000 2.000000e+000 3.250000e+001
         vertex 4.500000e+000 9.902771e+000 3.406116e+000
         vertex 4.500000e+000 9.357302e+000 3.002689e+000
      endloop
   endfacet
   facet normal -1.000000e+000 1.734723e-016 0.000000e+000
      outer loop
         vertex 4.500000e+000 2.000000e+000 3.250000e+001
         vertex 4.500000e+000 9.357302e+000 3.002689e+000
         vertex 4.500000e+000 8.887857e+000 2.512880e+000
      endloop
   endfacet
   facet normal 0.000000e+000 1.000000e+000 0.000000e+000
      outer loop
         vertex -6.500000e+000 2.000000e+000 3.250000e+001
         vertex 4.500000e+000 2.000000e+000 3.250000e+001
         vertex -6.500000e+000 2.000000e+000 -3.250000e+001
      endloop
   endfacet
   facet normal 0.000000e+000 1.000000e+000 0.000000e+000
      outer loop
         vertex -6.500000e+000 2.000000e+000 -3.250000e+001
         vertex 4.500000e+000 2.000000e+000 3.250000e+001
         vertex 4.500000e+000 2.000000e+000 -3.250000e+001
      endloop
   endfacet
   facet normal -1.000000e+000 0.000000e+000 0.000000e+000
      outer loop
         vertex -6.500000e+000 9.984190e-016 3.250000e+001
         vertex -6.500000e+000 2.000000e+000 3.250000e+001
         vertex -6.500000e+000 9.984190e-016 -3.250000e+001
      endloop
   endfacet
   facet normal -1.000000e+000 0.000000e+000 0.000000e+000
      outer loop
         vertex -6.500000e+000 9.984190e-016 -3.250000e+001
         vertex -6.500000e+000 2.000000e+000 3.250000e+001
         vertex -6.500000e+000 2.000000e+000 -3.250000e+001
      endloop
   endfacet
   facet normal 3.061617e-016 -1.000000e+000 0.000000e+000
      outer loop
         vertex 6.500000e+000 4.978521e-015 3.250000e+001
         vertex -6.500000e+000 9.984190e-016 3.250000e+001
         vertex 6.500000e+000 4.978521e-015 -3.250000e+001
      endloop
   endfacet
   facet normal 3.061617e-016 -1.000000e+000 0.000000e+000
      outer loop
         vertex 6.500000e+000 4.978521e-015 -3.250000e+001
         vertex -6.500000e+000 9.984190e-016 3.250000e+001
         vertex -6.500000e+000 9.984190e-016 -3.250000e+001
      endloop
   endfacet
   facet normal 1.000000e+000 3.837884e-017 0.000000e+000
      outer loop
         vertex 6.500000e+000 1.488783e+001 2.767756e+000
         vertex 6.500000e+000 1.531404e+001 2.239899e+000
         vertex 6.500000e+000 2.260000e+001 3.250000e+001
      endloop
   endfacet
   facet normal 1.000000e+000 3.837884e-017 0.000000e+000
      outer loop
         vertex 6.500000e+000 1.531404e+001 -2.239899e+000
         vertex 6.500000e+000 2.260000e+001 -3.250000e+001
         vertex 6.500000e+000 1.564491e+001 -1.647605e+000
      endloop
   endfacet
   facet normal 1.000000e+000 3.837884e-017 0.000000e+000
      outer loop
         vertex 6.500000e+000 1.564491e+001 -1.647605e+000
         vertex 6.500000e+000 2.260000e+001 -3.250000e+001
         vertex 6.500000e+000 1.587093e+001 -1.007912e+000
      endloop
   endfacet
   facet normal 1.000000e+000 3.837884e-017 0.000000e+000
      outer loop
         vertex 6.500000e+000 1.531404e+001 -2.239899e+000
         vertex 6.500000e+000 1.488783e+001 -2.767756e+000
         vertex 6.500000e+000 2.260000e+001 -3.250000e+001
      endloop
   endfacet
   facet normal 1.000000e+000 3.837884e-017 0.000000e+000
      outer loop
         vertex 6.500000e+000 2.260000e+001 -3.250000e+001
         vertex 6.500000e+000 1.488783e+001 -2.767756e+000
         vertex 6.500000e+000 1.437853e+001 -3.215989e+000
      endloop
   endfacet
   facet normal 1.000000e+000 3.837884e-017 0.000000e+000
      outer loop
         vertex 6.500000e+000 2.260000e+001 -3.250000e+001
         vertex 6.500000e+000 1.437853e+001 -3.215989e+000
         vertex 6.500000e+000 1.380081e+001 -3.571703e+000
      endloop
   endfacet
   facet normal 1.000000e+000 3.837884e-017 0.000000e+000
      outer loop
         vertex 6.500000e+000 2.260000e+001 3.250000e+001
         vertex 6.500000e+000 1.598559e+001 3.392237e-001
         vertex 6.500000e+000 2.260000e+001 -3.250000e+001
      endloop
   endfacet
   facet normal 1.000000e+000 3.837884e-017 0.000000e+000
      outer loop
         vertex 6.500000e+000 2.260000e+001 -3.250000e+001
         vertex 6.500000e+000 1.598559e+001 3.392237e-001
         vertex 6.500000e+000 1.598559e+001 -3.392237e-001
      endloop
   endfacet
   facet normal 1.000000e+000 3.837884e-017 0.000000e+000
      outer loop
         vertex 6.500000e+000 2.260000e+001 -3.250000e+001
         vertex 6.500000e+000 1.598559e+001 -3.392237e-001
         vertex 6.500000e+000 1.587093e+001 -1.007912e+000
      endloop
   endfacet
   facet normal 1.000000e+000 3.837884e-017 0.000000e+000
      outer loop
         vertex 6.500000e+000 1.115728e+001 -3.910221e+000
         vertex 6.500000e+000 1.050857e+001 -3.711556e+000
         vertex 6.500000e+000 3.469447e-015 -3.250000e+001
      endloop
   endfacet
   facet normal 1.000000e+000 3.837884e-017 0.000000e+000
      outer loop
         vertex 6.500000e+000 3.469447e-015 -3.250000e+001
         vertex 6.500000e+000 1.050857e+001 -3.711556e+000
         vertex 6.500000e+000 9.902771e+000 -3.406116e+000
      endloop
   endfacet
   facet normal 1.000000e+000 3.837884e-017 0.000000e+000
      outer loop
         vertex 6.500000e+000 3.469447e-015 -3.250000e+001
         vertex 6.500000e+000 9.902771e+000 -3.406116e+000
         vertex 6.500000e+000 9.357302e+000 -3.002689e+000
      endloop
   endfacet
   facet normal 1.000000e+000 3.837884e-017 0.000000e+000
      outer loop
         vertex 6.500000e+000 1.531404e+001 2.239899e+000
         vertex 6.500000e+000 1.564491e+001 1.647605e+000
         vertex 6.500000e+000 2.260000e+001 3.250000e+001
      endloop
   endfacet
   facet normal 1.000000e+000 3.837884e-017 0.000000e+000
      outer loop
         vertex 6.500000e+000 2.260000e+001 3.250000e+001
         vertex 6.500000e+000 1.564491e+001 1.647605e+000
         vertex 6.500000e+000 1.587093e+001 1.007912e+000
      endloop
   endfacet
   facet normal 1.000000e+000 3.837884e-017 0.000000e+000
      outer loop
         vertex 6.500000e+000 2.260000e+001 3.250000e+001
         vertex 6.500000e+000 1.587093e+001 1.007912e+000
         vertex 6.500000e+000 1.598559e+001 3.392237e-001
      endloop
   endfacet
   facet normal 1.000000e+000 3.837884e-017 0.000000e+000
      outer loop
         vertex 6.500000e+000 1.380081e+001 -3.571703e+000
         vertex 6.500000e+000 1.317129e+001 -3.824667e+000
         vertex 6.500000e+000 2.260000e+001 -3.250000e+001
      endloop
   endfacet
   facet normal 1.000000e+000 3.837884e-017 0.000000e+000
      outer loop
         vertex 6.500000e+000 2.260000e+001 -3.250000e+001
         vertex 6.500000e+000 1.317129e+001 -3.824667e+000
         vertex 6.500000e+000 1.250807e+001 -3.967602e+000
      endloop
   endfacet
   facet normal 1.000000e+000 3.837884e-017 0.000000e+000
      outer loop
         vertex 6.500000e+000 2.260000e+001 -3.250000e+001
         vertex 6.500000e+000 1.250807e+001 -3.967602e+000
         vertex 6.500000e+000 3.469447e-015 -3.250000e+001
      endloop
   endfacet
   facet normal 1.000000e+000 3.837884e-017 0.000000e+000
      outer loop
         vertex 6.500000e+000 3.469447e-015 -3.250000e+001
         vertex 6.500000e+000 1.250807e+001 -3.967602e+000
         vertex 6.500000e+000 1.183023e+001 -3.996396e+000
      endloop
   endfacet
   facet normal 1.000000e+000 3.837884e-017 0.000000e+000
      outer loop
         vertex 6.500000e+000 3.469447e-015 -3.250000e+001
         vertex 6.500000e+000 1.183023e+001 -3.996396e+000
         vertex 6.500000e+000 1.115728e+001 -3.910221e+000
      endloop
   endfacet
   facet normal 1.000000e+000 3.837884e-017 0.000000e+000
      outer loop
         vertex 6.500000e+000 1.115728e+001 3.910221e+000
         vertex 6.500000e+000 1.183023e+001 3.996396e+000
         vertex 6.500000e+000 3.469447e-015 3.250000e+001
      endloop
   endfacet
   facet normal 1.000000e+000 3.837884e-017 0.000000e+000
      outer loop
         vertex 6.500000e+000 9.357302e+000 -3.002689e+000
         vertex 6.500000e+000 8.887857e+000 -2.512880e+000
         vertex 6.500000e+000 3.469447e-015 -3.250000e+001
      endloop
   endfacet
   facet normal 1.000000e+000 3.837884e-017 0.000000e+000
      outer loop
         vertex 6.500000e+000 3.469447e-015 -3.250000e+001
         vertex 6.500000e+000 8.887857e+000 -2.512880e+000
         vertex 6.500000e+000 8.507944e+000 -1.950780e+000
      endloop
   endfacet
   facet normal 1.000000e+000 3.837884e-017 0.000000e+000
      outer loop
         vertex 6.500000e+000 3.469447e-015 -3.250000e+001
         vertex 6.500000e+000 8.507944e+000 -1.950780e+000
         vertex 6.500000e+000 8.228490e+000 -1.332559e+000
      endloop
   endfacet
   facet normal 1.000000e+000 3.837884e-017 0.000000e+000
      outer loop
         vertex 6.500000e+000 3.469447e-015 3.250000e+001
         vertex 6.500000e+000 1.183023e+001 3.996396e+000
         vertex 6.500000e+000 2.260000e+001 3.250000e+001
      endloop
   endfacet
   facet normal 1.000000e+000 3.837884e-017 0.000000e+000
      outer loop
         vertex 6.500000e+000 2.260000e+001 3.250000e+001
         vertex 6.500000e+000 1.183023e+001 3.996396e+000
         vertex 6.500000e+000 1.250807e+001 3.967602e+000
      endloop
   endfacet
   facet normal 1.000000e+000 3.837884e-017 0.000000e+000
      outer loop
         vertex 6.500000e+000 2.260000e+001 3.250000e+001
         vertex 6.500000e+000 1.250807e+001 3.967602e+000
         vertex 6.500000e+000 1.317129e+001 3.824667e+000
      endloop
   endfacet
   facet normal 1.000000e+000 3.837884e-017 0.000000e+000
      outer loop
         vertex 6.500000e+000 8.228490e+000 -1.332559e+000
         vertex 6.500000e+000 8.057536e+000 -6.760033e-001
         vertex 6.500000e+000 3.469447e-015 -3.250000e+001
      endloop
   endfacet
   facet normal 1.000000e+000 3.837884e-017 0.000000e+000
      outer loop
         vertex 6.500000e+000 3.469447e-015 -3.250000e+001
         vertex 6.500000e+000 8.057536e+000 -6.760033e-001
         vertex 6.500000e+000 8.000000e+000 0.000000e+000
      endloop
   endfacet
   facet normal 1.000000e+000 3.837884e-017 0.000000e+000
      outer loop
         vertex 6.500000e+000 3.469447e-015 -3.250000e+001
         vertex 6.500000e+000 8.000000e+000 0.000000e+000
         vertex 6.500000e+000 3.469447e-015 3.250000e+001
      endloop
   endfacet
   facet normal 1.000000e+000 3.837884e-017 0.000000e+000
      outer loop
         vertex 6.500000e+000 3.469447e-015 3.250000e+001
         vertex 6.500000e+000 8.000000e+000 0.000000e+000
         vertex 6.500000e+000 8.057536e+000 6.760033e-001
      endloop
   endfacet
   facet normal 1.000000e+000 3.837884e-017 0.000000e+000
      outer loop
         vertex 6.500000e+000 3.469447e-015 3.250000e+001
         vertex 6.500000e+000 8.057536e+000 6.760033e-001
         vertex 6.500000e+000 8.228490e+000 1.332559e+000
      endloop
   endfacet
   facet normal 1.000000e+000 3.837884e-017 0.000000e+000
      outer loop
         vertex 6.500000e+000 1.317129e+001 3.824667e+000
         vertex 6.500000e+000 1.380081e+001 3.571703e+000
         vertex 6.500000e+000 2.260000e+001 3.250000e+001
      endloop
   endfacet
   facet normal 1.000000e+000 3.837884e-017 0.000000e+000
      outer loop
         vertex 6.500000e+000 2.260000e+001 3.250000e+001
         vertex 6.500000e+000 1.380081e+001 3.571703e+000
         vertex 6.500000e+000 1.437853e+001 3.215989e+000
      endloop
   endfacet
   facet normal 1.000000e+000 3.837884e-017 0.000000e+000
      outer loop
         vertex 6.500000e+000 2.260000e+001 3.250000e+001
         vertex 6.500000e+000 1.437853e+001 3.215989e+000
         vertex 6.500000e+000 1.488783e+001 2.767756e+000
      endloop
   endfacet
   facet normal 1.000000e+000 3.837884e-017 0.000000e+000
      outer loop
         vertex 6.500000e+000 8.228490e+000 1.332559e+000
         vertex 6.500000e+000 8.507944e+000 1.950780e+000
         vertex 6.500000e+000 3.469447e-015 3.250000e+001
      endloop
   endfacet
   facet normal 1.000000e+000 3.837884e-017 0.000000e+000
      outer loop
         vertex 6.500000e+000 3.469447e-015 3.250000e+001
         vertex 6.500000e+000 8.507944e+000 1.950780e+000
         vertex 6.500000e+000 8.887857e+000 2.512880e+000
      endloop
   endfacet
   facet normal 1.000000e+000 3.837884e-017 0.000000e+000
      outer loop
         vertex 6.500000e+000 3.469447e-015 3.250000e+001
         vertex 6.500000e+000 8.887857e+000 2.512880e+000
         vertex 6.500000e+000 9.357302e+000 3.002689e+000
      endloop
   endfacet
   facet normal 1.000000e+000 3.837884e-017 0.000000e+000
      outer loop
         vertex 6.500000e+000 9.357302e+000 3.002689e+000
         vertex 6.500000e+000 9.902771e+000 3.406116e+000
         vertex 6.500000e+000 3.469447e-015 3.250000e+001
      endloop
   endfacet
   facet normal 1.000000e+000 3.837884e-017 0.000000e+000
      outer loop
         vertex 6.500000e+000 3.469447e-015 3.250000e+001
         vertex 6.500000e+000 9.902771e+000 3.406116e+000
         vertex 6.500000e+000 1.050857e+001 3.711556e+000
      endloop
   endfacet
   facet normal 1.000000e+000 3.837884e-017 0.000000e+000
      outer loop
         vertex 6.500000e+000 3.469447e-015 3.250000e+001
         vertex 6.500000e+000 1.050857e+001 3.711556e+000
         vertex 6.500000e+000 1.115728e+001 3.910221e+000
      endloop
   endfacet
   facet normal 6.938894e-015 1.000000e+000 0.000000e+000
      outer loop
         vertex 6.000000e+000 2.260000e+001 3.250000e+001
         vertex 6.500000e+000 2.260000e+001 3.250000e+001
         vertex 6.000000e+000 2.260000e+001 -3.250000e+001
      endloop
   endfacet
   facet normal 6.938894e-015 1.000000e+000 0.000000e+000
      outer loop
         vertex 6.000000e+000 2.260000e+001 -3.250000e+001
         vertex 6.500000e+000 2.260000e+001 3.250000e+001
         vertex 6.500000e+000 2.260000e+001 -3.250000e+001
      endloop
   endfacet
   facet normal 1.000000e+000 0.000000e+000 0.000000e+000
      outer loop
         vertex 6.000000e+000 2.330000e+001 3.250000e+001
         vertex 6.000000e+000 2.260000e+001 3.250000e+001
         vertex 6.000000e+000 2.330000e+001 -3.250000e+001
      endloop
   endfacet
   facet normal 1.000000e+000 0.000000e+000 0.000000e+000
      outer loop
         vertex 6.000000e+000 2.330000e+001 -3.250000e+001
         vertex 6.000000e+000 2.260000e+001 3.250000e+001
         vertex 6.000000e+000 2.260000e+001 -3.250000e+001
      endloop
   endfacet
   facet normal 0.000000e+000 -1.000000e+000 0.000000e+000
      outer loop
         vertex 7.000000e+000 2.330000e+001 3.250000e+001
         vertex 6.000000e+000 2.330000e+001 3.250000e+001
         vertex 7.000000e+000 2.330000e+001 -3.250000e+001
      endloop
   endfacet
   facet normal 0.000000e+000 -1.000000e+000 0.000000e+000
      outer loop
         vertex 7.000000e+000 2.330000e+001 -3.250000e+001
         vertex 6.000000e+000 2.330000e+001 3.250000e+001
         vertex 6.000000e+000 2.330000e+001 -3.250000e+001
      endloop
   endfacet
   facet normal 1.000000e+000 -1.239088e-015 0.000000e+000
      outer loop
         vertex 7.000000e+000 2.400000e+001 3.250000e+001
         vertex 7.000000e+000 2.330000e+001 3.250000e+001
         vertex 7.000000e+000 2.400000e+001 -3.250000e+001
      endloop
   endfacet
   facet normal 1.000000e+000 -1.239088e-015 0.000000e+000
      outer loop
         vertex 7.000000e+000 2.400000e+001 -3.250000e+001
         vertex 7.000000e+000 2.330000e+001 3.250000e+001
         vertex 7.000000e+000 2.330000e+001 -3.250000e+001
      endloop
   endfacet
   facet normal 1.387779e-014 1.000000e+000 0.000000e+000
      outer loop
         vertex -7.000000e+000 2.400000e+001 3.250000e+001
         vertex 7.000000e+000 2.400000e+001 3.250000e+001
         vertex -7.000000e+000 2.400000e+001 -3.250000e+001
      endloop
   endfacet
   facet normal 1.387779e-014 1.000000e+000 0.000000e+000
      outer loop
         vertex -7.000000e+000 2.400000e+001 -3.250000e+001
         vertex 7.000000e+000 2.400000e+001 3.250000e+001
         vertex 7.000000e+000 2.400000e+001 -3.250000e+001
      endloop
   endfacet
   facet normal -1.000000e+000 -1.239088e-015 0.000000e+000
      outer loop
         vertex -7.000000e+000 2.330000e+001 3.250000e+001
         vertex -7.000000e+000 2.400000e+001 3.250000e+001
         vertex -7.000000e+000 2.330000e+001 -3.250000e+001
      endloop
   endfacet
   facet normal -1.000000e+000 -1.239088e-015 0.000000e+000
      outer loop
         vertex -7.000000e+000 2.330000e+001 -3.250000e+001
         vertex -7.000000e+000 2.400000e+001 3.250000e+001
         vertex -7.000000e+000 2.400000e+001 -3.250000e+001
      endloop
   endfacet
   facet normal 0.000000e+000 -1.000000e+000 0.000000e+000
      outer loop
         vertex -6.000000e+000 2.330000e+001 3.250000e+001
         vertex -7.000000e+000 2.330000e+001 3.250000e+001
         vertex -6.000000e+000 2.330000e+001 -3.250000e+001
      endloop
   endfacet
   facet normal 0.000000e+000 -1.000000e+000 0.000000e+000
      outer loop
         vertex -6.000000e+000 2.330000e+001 -3.250000e+001
         vertex -7.000000e+000 2.330000e+001 3.250000e+001
         vertex -7.000000e+000 2.330000e+001 -3.250000e+001
      endloop
   endfacet
   facet normal -1.000000e+000 0.000000e+000 0.000000e+000
      outer loop
         vertex -6.000000e+000 2.260000e+001 3.250000e+001
         vertex -6.000000e+000 2.330000e+001 3.250000e+001
         vertex -6.000000e+000 2.260000e+001 -3.250000e+001
      endloop
   endfacet
   facet normal -1.000000e+000 0.000000e+000 0.000000e+000
      outer loop
         vertex -6.000000e+000 2.260000e+001 -3.250000e+001
         vertex -6.000000e+000 2.330000e+001 3.250000e+001
         vertex -6.000000e+000 2.330000e+001 -3.250000e+001
      endloop
   endfacet
   facet normal -6.938894e-015 1.000000e+000 0.000000e+000
      outer loop
         vertex -6.500000e+000 2.260000e+001 3.250000e+001
         vertex -6.000000e+000 2.260000e+001 3.250000e+001
         vertex -6.500000e+000 2.260000e+001 -3.250000e+001
      endloop
   endfacet
   facet normal -6.938894e-015 1.000000e+000 0.000000e+000
      outer loop
         vertex -6.500000e+000 2.260000e+001 -3.250000e+001
         vertex -6.000000e+000 2.260000e+001 3.250000e+001
         vertex -6.000000e+000 2.260000e+001 -3.250000e+001
      endloop
   endfacet
   facet normal -1.000000e+000 -1.445603e-015 0.000000e+000
      outer loop
         vertex -6.500000e+000 2.200000e+001 3.250000e+001
         vertex -6.500000e+000 2.260000e+001 3.250000e+001
         vertex -6.500000e+000 2.200000e+001 -3.250000e+001
      endloop
   endfacet
   facet normal -1.000000e+000 -1.445603e-015 0.000000e+000
      outer loop
         vertex -6.500000e+000 2.200000e+001 -3.250000e+001
         vertex -6.500000e+000 2.260000e+001 3.250000e+001
         vertex -6.500000e+000 2.260000e+001 -3.250000e+001
      endloop
   endfacet
   facet normal 3.154043e-016 -1.000000e+000 0.000000e+000
      outer loop
         vertex 4.500000e+000 2.200000e+001 3.250000e+001
         vertex -6.500000e+000 2.200000e+001 3.250000e+001
         vertex 4.500000e+000 2.200000e+001 -3.250000e+001
      endloop
   endfacet
   facet normal 3.154043e-016 -1.000000e+000 0.000000e+000
      outer loop
         vertex 4.500000e+000 2.200000e+001 -3.250000e+001
         vertex -6.500000e+000 2.200000e+001 3.250000e+001
         vertex -6.500000e+000 2.200000e+001 -3.250000e+001
      endloop
   endfacet
   facet normal 0.000000e+000 0.000000e+000 1.000000e+000
      outer loop
         vertex 4.500000e+000 2.000000e+000 3.250000e+001
         vertex -6.500000e+000 2.000000e+000 3.250000e+001
         vertex -6.500000e+000 0.000000e+000 3.250000e+001
      endloop
   endfacet
   facet normal 0.000000e+000 0.000000e+000 1.000000e+000
      outer loop
         vertex 7.000000e+000 2.330000e+001 3.250000e+001
         vertex 7.000000e+000 2.400000e+001 3.250000e+001
         vertex 6.000000e+000 2.330000e+001 3.250000e+001
      endloop
   endfacet
   facet normal 0.000000e+000 0.000000e+000 1.000000e+000
      outer loop
         vertex 6.000000e+000 2.330000e+001 3.250000e+001
         vertex 7.000000e+000 2.400000e+001 3.250000e+001
         vertex -7.000000e+000 2.400000e+001 3.250000e+001
      endloop
   endfacet
   facet normal 0.000000e+000 0.000000e+000 1.000000e+000
      outer loop
         vertex -6.500000e+000 2.260000e+001 3.250000e+001
         vertex -6.500000e+000 2.200000e+001 3.250000e+001
         vertex -6.000000e+000 2.260000e+001 3.250000e+001
      endloop
   endfacet
   facet normal 0.000000e+000 0.000000e+000 1.000000e+000
      outer loop
         vertex -6.000000e+000 2.260000e+001 3.250000e+001
         vertex -6.500000e+000 2.200000e+001 3.250000e+001
         vertex 4.500000e+000 2.200000e+001 3.250000e+001
      endloop
   endfacet
   facet normal 0.000000e+000 0.000000e+000 1.000000e+000
      outer loop
         vertex -6.000000e+000 2.260000e+001 3.250000e+001
         vertex 4.500000e+000 2.200000e+001 3.250000e+001
         vertex -6.000000e+000 2.330000e+001 3.250000e+001
      endloop
   endfacet
   facet normal 0.000000e+000 0.000000e+000 1.000000e+000
      outer loop
         vertex 6.500000e+000 3.469447e-015 3.250000e+001
         vertex 6.500000e+000 2.260000e+001 3.250000e+001
         vertex 6.000000e+000 2.260000e+001 3.250000e+001
      endloop
   endfacet
   facet normal 0.000000e+000 0.000000e+000 1.000000e+000
      outer loop
         vertex -6.500000e+000 0.000000e+000 3.250000e+001
         vertex 6.500000e+000 3.469447e-015 3.250000e+001
         vertex 4.500000e+000 2.000000e+000 3.250000e+001
      endloop
   endfacet
   facet normal 0.000000e+000 0.000000e+000 1.000000e+000
      outer loop
         vertex 4.500000e+000 2.000000e+000 3.250000e+001
         vertex 6.500000e+000 3.469447e-015 3.250000e+001
         vertex 6.000000e+000 2.260000e+001 3.250000e+001
      endloop
   endfacet
   facet normal 0.000000e+000 0.000000e+000 1.000000e+000
      outer loop
         vertex 4.500000e+000 2.000000e+000 3.250000e+001
         vertex 6.000000e+000 2.260000e+001 3.250000e+001
         vertex 4.500000e+000 2.200000e+001 3.250000e+001
      endloop
   endfacet
   facet normal 0.000000e+000 0.000000e+000 1.000000e+000
      outer loop
         vertex 4.500000e+000 2.200000e+001 3.250000e+001
         vertex 6.000000e+000 2.260000e+001 3.250000e+001
         vertex 6.000000e+000 2.330000e+001 3.250000e+001
      endloop
   endfacet
   facet normal 0.000000e+000 0.000000e+000 1.000000e+000
      outer loop
         vertex 4.500000e+000 2.200000e+001 3.250000e+001
         vertex 6.000000e+000 2.330000e+001 3.250000e+001
         vertex -6.000000e+000 2.330000e+001 3.250000e+001
      endloop
   endfacet
   facet normal 0.000000e+000 0.000000e+000 1.000000e+000
      outer loop
         vertex -6.000000e+000 2.330000e+001 3.250000e+001
         vertex 6.000000e+000 2.330000e+001 3.250000e+001
         vertex -7.000000e+000 2.400000e+001 3.250000e+001
      endloop
   endfacet
   facet normal 0.000000e+000 0.000000e+000 1.000000e+000
      outer loop
         vertex -6.000000e+000 2.330000e+001 3.250000e+001
         vertex -7.000000e+000 2.400000e+001 3.250000e+001
         vertex -7.000000e+000 2.330000e+001 3.250000e+001
      endloop
   endfacet
   facet normal 0.000000e+000 0.000000e+000 -1.000000e+000
      outer loop
         vertex 6.000000e+000 2.260000e+001 -3.250000e+001
         vertex 6.500000e+000 2.260000e+001 -3.250000e+001
         vertex 6.500000e+000 3.469447e-015 -3.250000e+001
      endloop
   endfacet
   facet normal 0.000000e+000 0.000000e+000 -1.000000e+000
      outer loop
         vertex 4.500000e+000 2.200000e+001 -3.250000e+001
         vertex -6.500000e+000 2.200000e+001 -3.250000e+001
         vertex -6.000000e+000 2.260000e+001 -3.250000e+001
      endloop
   endfacet
   facet normal 0.000000e+000 0.000000e+000 -1.000000e+000
      outer loop
         vertex -6.000000e+000 2.260000e+001 -3.250000e+001
         vertex -6.500000e+000 2.200000e+001 -3.250000e+001
         vertex -6.500000e+000 2.260000e+001 -3.250000e+001
      endloop
   endfacet
   facet normal 0.000000e+000 0.000000e+000 -1.000000e+000
      outer loop
         vertex -7.000000e+000 2.330000e+001 -3.250000e+001
         vertex -7.000000e+000 2.400000e+001 -3.250000e+001
         vertex -6.000000e+000 2.330000e+001 -3.250000e+001
      endloop
   endfacet
   facet normal 0.000000e+000 0.000000e+000 -1.000000e+000
      outer loop
         vertex -6.000000e+000 2.330000e+001 -3.250000e+001
         vertex -7.000000e+000 2.400000e+001 -3.250000e+001
         vertex 7.000000e+000 2.400000e+001 -3.250000e+001
      endloop
   endfacet
   facet normal 0.000000e+000 0.000000e+000 -1.000000e+000
      outer loop
         vertex -6.000000e+000 2.330000e+001 -3.250000e+001
         vertex 7.000000e+000 2.400000e+001 -3.250000e+001
         vertex 6.000000e+000 2.330000e+001 -3.250000e+001
      endloop
   endfacet
   facet normal 0.000000e+000 0.000000e+000 -1.000000e+000
      outer loop
         vertex 6.000000e+000 2.330000e+001 -3.250000e+001
         vertex 7.000000e+000 2.400000e+001 -3.250000e+001
         vertex 7.000000e+000 2.330000e+001 -3.250000e+001
      endloop
   endfacet
   facet normal 0.000000e+000 0.000000e+000 -1.000000e+000
      outer loop
         vertex -6.500000e+000 0.000000e+000 -3.250000e+001
         vertex -6.500000e+000 2.000000e+000 -3.250000e+001
         vertex 6.500000e+000 3.469447e-015 -3.250000e+001
      endloop
   endfacet
   facet normal 0.000000e+000 0.000000e+000 -1.000000e+000
      outer loop
         vertex 6.500000e+000 3.469447e-015 -3.250000e+001
         vertex -6.500000e+000 2.000000e+000 -3.250000e+001
         vertex 4.500000e+000 2.000000e+000 -3.250000e+001
      endloop
   endfacet
   facet normal 0.000000e+000 0.000000e+000 -1.000000e+000
      outer loop
         vertex 6.500000e+000 3.469447e-015 -3.250000e+001
         vertex 4.500000e+000 2.000000e+000 -3.250000e+001
         vertex 6.000000e+000 2.260000e+001 -3.250000e+001
      endloop
   endfacet
   facet normal 0.000000e+000 0.000000e+000 -1.000000e+000
      outer loop
         vertex 6.000000e+000 2.260000e+001 -3.250000e+001
         vertex 4.500000e+000 2.000000e+000 -3.250000e+001
         vertex 4.500000e+000 2.200000e+001 -3.250000e+001
      endloop
   endfacet
   facet normal 0.000000e+000 0.000000e+000 -1.000000e+000
      outer loop
         vertex 6.000000e+000 2.260000e+001 -3.250000e+001
         vertex 4.500000e+000 2.200000e+001 -3.250000e+001
         vertex 6.000000e+000 2.330000e+001 -3.250000e+001
      endloop
   endfacet
   facet normal 0.000000e+000 0.000000e+000 -1.000000e+000
      outer loop
         vertex 6.000000e+000 2.330000e+001 -3.250000e+001
         vertex 4.500000e+000 2.200000e+001 -3.250000e+001
         vertex -6.000000e+000 2.260000e+001 -3.250000e+001
      endloop
   endfacet
   facet normal 0.000000e+000 0.000000e+000 -1.000000e+000
      outer loop
         vertex 6.000000e+000 2.330000e+001 -3.250000e+001
         vertex -6.000000e+000 2.260000e+001 -3.250000e+001
         vertex -6.000000e+000 2.330000e+001 -3.250000e+001
      endloop
   endfacet
   facet normal 1.731951e-016 9.984018e-001 5.651454e-002
      outer loop
         vertex 6.500000e+000 8.057536e+000 -6.760033e-001
         vertex 4.500000e+000 8.000000e+000 -9.797175e-016
         vertex 6.500000e+000 8.000000e+000 -9.797175e-016
      endloop
   endfacet
   facet normal 1.731951e-016 9.984018e-001 -5.651454e-002
      outer loop
         vertex 6.500000e+000 8.000000e+000 -9.797175e-016
         vertex 4.500000e+000 8.000000e+000 -9.797175e-016
         vertex 4.500000e+000 8.057536e+000 6.760033e-001
      endloop
   endfacet
   facet normal 1.723607e-016 9.935917e-001 -1.130291e-001
      outer loop
         vertex 6.500000e+000 8.000000e+000 -9.797175e-016
         vertex 4.500000e+000 8.057536e+000 6.760033e-001
         vertex 6.500000e+000 8.057536e+000 6.760033e-001
      endloop
   endfacet
   facet normal 1.690470e-016 9.744897e-001 -2.244324e-001
      outer loop
         vertex 6.500000e+000 8.057536e+000 6.760033e-001
         vertex 4.500000e+000 8.057536e+000 6.760033e-001
         vertex 4.500000e+000 8.228490e+000 1.332559e+000
      endloop
   endfacet
   facet normal 1.665678e-016 9.601977e-001 -2.793211e-001
      outer loop
         vertex 6.500000e+000 8.057536e+000 6.760033e-001
         vertex 4.500000e+000 8.228490e+000 1.332559e+000
         vertex 6.500000e+000 8.228490e+000 1.332559e+000
      endloop
   endfacet
   facet normal 1.600357e-016 9.225433e-001 -3.858936e-001
      outer loop
         vertex 6.500000e+000 8.228490e+000 1.332559e+000
         vertex 4.500000e+000 8.228490e+000 1.332559e+000
         vertex 4.500000e+000 8.507944e+000 1.950780e+000
      endloop
   endfacet
   facet normal 1.559830e-016 8.991807e-001 -4.375775e-001
      outer loop
         vertex 6.500000e+000 8.228490e+000 1.332559e+000
         vertex 4.500000e+000 8.507944e+000 1.950780e+000
         vertex 6.500000e+000 8.507944e+000 1.950780e+000
      endloop
   endfacet
   facet normal 1.464205e-016 8.440570e-001 -5.362535e-001
      outer loop
         vertex 6.500000e+000 8.507944e+000 1.950780e+000
         vertex 4.500000e+000 8.507944e+000 1.950780e+000
         vertex 4.500000e+000 8.887857e+000 2.512880e+000
      endloop
   endfacet
   facet normal 1.409109e-016 8.122959e-001 -5.832456e-001
      outer loop
         vertex 6.500000e+000 8.507944e+000 1.950780e+000
         vertex 4.500000e+000 8.887857e+000 2.512880e+000
         vertex 6.500000e+000 8.887857e+000 2.512880e+000
      endloop
   endfacet
   facet normal 1.285931e-016 7.412888e-001 -6.711863e-001
      outer loop
         vertex 6.500000e+000 8.887857e+000 2.512880e+000
         vertex 4.500000e+000 8.887857e+000 2.512880e+000
         vertex 4.500000e+000 9.357302e+000 3.002689e+000
      endloop
   endfacet
   facet normal 1.217850e-016 7.020428e-001 -7.121348e-001
      outer loop
         vertex 6.500000e+000 8.887857e+000 2.512880e+000
         vertex 4.500000e+000 9.357302e+000 3.002689e+000
         vertex 6.500000e+000 9.357302e+000 3.002689e+000
      endloop
   endfacet
   facet normal 1.070662e-016 6.171949e-001 -7.868103e-001
      outer loop
         vertex 6.500000e+000 9.357302e+000 3.002689e+000
         vertex 4.500000e+000 9.357302e+000 3.002689e+000
         vertex 4.500000e+000 9.902771e+000 3.406116e+000
      endloop
   endfacet
   facet normal 9.915559e-017 5.715931e-001 -8.205372e-001
      outer loop
         vertex 6.500000e+000 9.357302e+000 3.002689e+000
         vertex 4.500000e+000 9.902771e+000 3.406116e+000
         vertex 6.500000e+000 9.902771e+000 3.406116e+000
      endloop
   endfacet
   facet normal 8.245931e-017 4.753455e-001 -8.797992e-001
      outer loop
         vertex 6.500000e+000 9.902771e+000 3.406116e+000
         vertex 4.500000e+000 9.902771e+000 3.406116e+000
         vertex 4.500000e+000 1.050857e+001 3.711556e+000
      endloop
   endfacet
   facet normal 7.367368e-017 4.246998e-001 -9.053342e-001
      outer loop
         vertex 6.500000e+000 9.902771e+000 3.406116e+000
         vertex 4.500000e+000 1.050857e+001 3.711556e+000
         vertex 6.500000e+000 1.050857e+001 3.711556e+000
      endloop
   endfacet
   facet normal 5.548016e-017 3.198213e-001 -9.474779e-001
      outer loop
         vertex 6.500000e+000 1.050857e+001 3.711556e+000
         vertex 4.500000e+000 1.050857e+001 3.711556e+000
         vertex 4.500000e+000 1.115728e+001 3.910221e+000
      endloop
   endfacet
   facet normal 4.607229e-017 2.655886e-001 -9.640865e-001
      outer loop
         vertex 6.500000e+000 1.050857e+001 3.711556e+000
         vertex 4.500000e+000 1.115728e+001 3.910221e+000
         vertex 6.500000e+000 1.115728e+001 3.910221e+000
      endloop
   endfacet
   facet normal 2.690495e-017 1.550965e-001 -9.878993e-001
      outer loop
         vertex 6.500000e+000 1.115728e+001 3.910221e+000
         vertex 4.500000e+000 1.115728e+001 3.910221e+000
         vertex 4.500000e+000 1.183023e+001 3.996396e+000
      endloop
   endfacet
   facet normal 1.714549e-017 9.883699e-002 -9.951036e-001
      outer loop
         vertex 6.500000e+000 1.115728e+001 3.910221e+000
         vertex 4.500000e+000 1.183023e+001 3.996396e+000
         vertex 6.500000e+000 1.183023e+001 3.996396e+000
      endloop
   endfacet
   facet normal -2.444269e-018 -1.409025e-002 -9.999007e-001
      outer loop
         vertex 6.500000e+000 1.183023e+001 3.996396e+000
         vertex 4.500000e+000 1.183023e+001 3.996396e+000
         vertex 4.500000e+000 1.250807e+001 3.967602e+000
      endloop
   endfacet
   facet normal -1.227456e-017 -7.075802e-002 -9.974935e-001
      outer loop
         vertex 6.500000e+000 1.183023e+001 3.996396e+000
         vertex 4.500000e+000 1.250807e+001 3.967602e+000
         vertex 6.500000e+000 1.250807e+001 3.967602e+000
      endloop
   endfacet
   facet normal -3.172317e-017 -1.828716e-001 -9.831368e-001
      outer loop
         vertex 6.500000e+000 1.250807e+001 3.967602e+000
         vertex 4.500000e+000 1.250807e+001 3.967602e+000
         vertex 4.500000e+000 1.317129e+001 3.824667e+000
      endloop
   endfacet
   facet normal -4.134149e-017 -2.383175e-001 -9.711873e-001
      outer loop
         vertex 6.500000e+000 1.250807e+001 3.967602e+000
         vertex 4.500000e+000 1.317129e+001 3.824667e+000
         vertex 6.500000e+000 1.317129e+001 3.824667e+000
      endloop
   endfacet
   facet normal -6.008945e-017 -3.463921e-001 -9.380898e-001
      outer loop
         vertex 6.500000e+000 1.317129e+001 3.824667e+000
         vertex 4.500000e+000 1.317129e+001 3.824667e+000
         vertex 4.500000e+000 1.380081e+001 3.571703e+000
      endloop
   endfacet
   facet normal -6.921909e-017 -3.990209e-001 -9.169418e-001
      outer loop
         vertex 6.500000e+000 1.317129e+001 3.824667e+000
         vertex 4.500000e+000 1.380081e+001 3.571703e+000
         vertex 6.500000e+000 1.380081e+001 3.571703e+000
      endloop
   endfacet
   facet normal -8.672706e-017 -4.999475e-001 -8.660557e-001
      outer loop
         vertex 6.500000e+000 1.380081e+001 3.571703e+000
         vertex 4.500000e+000 1.380081e+001 3.571703e+000
         vertex 4.500000e+000 1.437853e+001 3.215989e+000
      endloop
   endfacet
   facet normal -9.510539e-017 -5.482453e-001 -8.363176e-001
      outer loop
         vertex 6.500000e+000 1.380081e+001 3.571703e+000
         vertex 4.500000e+000 1.437853e+001 3.215989e+000
         vertex 6.500000e+000 1.437853e+001 3.215989e+000
      endloop
   endfacet
   facet normal -1.108697e-016 -6.391203e-001 -7.691067e-001
      outer loop
         vertex 6.500000e+000 1.437853e+001 3.215989e+000
         vertex 4.500000e+000 1.437853e+001 3.215989e+000
         vertex 4.500000e+000 1.488783e+001 2.767756e+000
      endloop
   endfacet
   facet normal -1.182557e-016 -6.816977e-001 -7.316340e-001
      outer loop
         vertex 6.500000e+000 1.437853e+001 3.215989e+000
         vertex 4.500000e+000 1.488783e+001 2.767756e+000
         vertex 6.500000e+000 1.488783e+001 2.767756e+000
      endloop
   endfacet
   facet normal -1.318228e-016 -7.599069e-001 -6.500320e-001
      outer loop
         vertex 6.500000e+000 1.488783e+001 2.767756e+000
         vertex 4.500000e+000 1.488783e+001 2.767756e+000
         vertex 4.500000e+000 1.531404e+001 2.239899e+000
      endloop
   endfacet
   facet normal -1.380040e-016 -7.955388e-001 -6.059027e-001
      outer loop
         vertex 6.500000e+000 1.488783e+001 2.767756e+000
         vertex 4.500000e+000 1.531404e+001 2.239899e+000
         vertex 6.500000e+000 1.531404e+001 2.239899e+000
      endloop
   endfacet
   facet normal -1.489836e-016 -8.588322e-001 -5.122570e-001
      outer loop
         vertex 6.500000e+000 1.531404e+001 2.239899e+000
         vertex 4.500000e+000 1.531404e+001 2.239899e+000
         vertex 4.500000e+000 1.564491e+001 1.647605e+000
      endloop
   endfacet
   facet normal -1.537822e-016 -8.864937e-001 -4.627406e-001
      outer loop
         vertex 6.500000e+000 1.531404e+001 2.239899e+000
         vertex 4.500000e+000 1.564491e+001 1.647605e+000
         vertex 6.500000e+000 1.564491e+001 1.647605e+000
      endloop
   endfacet
   facet normal -1.618585e-016 -9.330506e-001 -3.597453e-001
      outer loop
         vertex 6.500000e+000 1.564491e+001 1.647605e+000
         vertex 4.500000e+000 1.564491e+001 1.647605e+000
         vertex 4.500000e+000 1.587093e+001 1.007912e+000
      endloop
   endfacet
   facet normal -1.651363e-016 -9.519458e-001 -3.062663e-001
      outer loop
         vertex 6.500000e+000 1.564491e+001 1.647605e+000
         vertex 4.500000e+000 1.587093e+001 1.007912e+000
         vertex 6.500000e+000 1.587093e+001 1.007912e+000
      endloop
   endfacet
   facet normal -1.700769e-016 -9.804267e-001 -1.968844e-001
      outer loop
         vertex 6.500000e+000 1.587093e+001 1.007912e+000
         vertex 4.500000e+000 1.587093e+001 1.007912e+000
         vertex 4.500000e+000 1.598559e+001 3.392237e-001
      endloop
   endfacet
   facet normal -1.717398e-016 -9.900123e-001 -1.409813e-001
      outer loop
         vertex 6.500000e+000 1.587093e+001 1.007912e+000
         vertex 4.500000e+000 1.598559e+001 3.392237e-001
         vertex 6.500000e+000 1.598559e+001 3.392237e-001
      endloop
   endfacet
   facet normal -1.734026e-016 -9.995977e-001 -2.835944e-002
      outer loop
         vertex 6.500000e+000 1.598559e+001 3.392237e-001
         vertex 4.500000e+000 1.598559e+001 3.392237e-001
         vertex 4.500000e+000 1.598559e+001 -3.392237e-001
      endloop
   endfacet
   facet normal -1.734026e-016 -9.995977e-001 2.835944e-002
      outer loop
         vertex 6.500000e+000 1.598559e+001 3.392237e-001
         vertex 4.500000e+000 1.598559e+001 -3.392237e-001
         vertex 6.500000e+000 1.598559e+001 -3.392237e-001
      endloop
   endfacet
   facet normal -1.717398e-016 -9.900123e-001 1.409813e-001
      outer loop
         vertex 6.500000e+000 1.598559e+001 -3.392237e-001
         vertex 4.500000e+000 1.598559e+001 -3.392237e-001
         vertex 4.500000e+000 1.587093e+001 -1.007912e+000
      endloop
   endfacet
   facet normal -1.700769e-016 -9.804267e-001 1.968844e-001
      outer loop
         vertex 6.500000e+000 1.598559e+001 -3.392237e-001
         vertex 4.500000e+000 1.587093e+001 -1.007912e+000
         vertex 6.500000e+000 1.587093e+001 -1.007912e+000
      endloop
   endfacet
   facet normal -1.651363e-016 -9.519458e-001 3.062663e-001
      outer loop
         vertex 6.500000e+000 1.587093e+001 -1.007912e+000
         vertex 4.500000e+000 1.587093e+001 -1.007912e+000
         vertex 4.500000e+000 1.564491e+001 -1.647605e+000
      endloop
   endfacet
   facet normal -1.618585e-016 -9.330506e-001 3.597453e-001
      outer loop
         vertex 6.500000e+000 1.587093e+001 -1.007912e+000
         vertex 4.500000e+000 1.564491e+001 -1.647605e+000
         vertex 6.500000e+000 1.564491e+001 -1.647605e+000
      endloop
   endfacet
   facet normal -1.537822e-016 -8.864937e-001 4.627406e-001
      outer loop
         vertex 6.500000e+000 1.564491e+001 -1.647605e+000
         vertex 4.500000e+000 1.564491e+001 -1.647605e+000
         vertex 4.500000e+000 1.531404e+001 -2.239899e+000
      endloop
   endfacet
   facet normal -1.489836e-016 -8.588322e-001 5.122570e-001
      outer loop
         vertex 6.500000e+000 1.564491e+001 -1.647605e+000
         vertex 4.500000e+000 1.531404e+001 -2.239899e+000
         vertex 6.500000e+000 1.531404e+001 -2.239899e+000
      endloop
   endfacet
   facet normal -1.380040e-016 -7.955388e-001 6.059027e-001
      outer loop
         vertex 6.500000e+000 1.531404e+001 -2.239899e+000
         vertex 4.500000e+000 1.531404e+001 -2.239899e+000
         vertex 4.500000e+000 1.488783e+001 -2.767756e+000
      endloop
   endfacet
   facet normal -1.318228e-016 -7.599069e-001 6.500320e-001
      outer loop
         vertex 6.500000e+000 1.531404e+001 -2.239899e+000
         vertex 4.500000e+000 1.488783e+001 -2.767756e+000
         vertex 6.500000e+000 1.488783e+001 -2.767756e+000
      endloop
   endfacet
   facet normal -1.182557e-016 -6.816977e-001 7.316340e-001
      outer loop
         vertex 6.500000e+000 1.488783e+001 -2.767756e+000
         vertex 4.500000e+000 1.488783e+001 -2.767756e+000
         vertex 4.500000e+000 1.437853e+001 -3.215989e+000
      endloop
   endfacet
   facet normal -1.108697e-016 -6.391203e-001 7.691067e-001
      outer loop
         vertex 6.500000e+000 1.488783e+001 -2.767756e+000
         vertex 4.500000e+000 1.437853e+001 -3.215989e+000
         vertex 6.500000e+000 1.437853e+001 -3.215989e+000
      endloop
   endfacet
   facet normal -9.510539e-017 -5.482453e-001 8.363176e-001
      outer loop
         vertex 6.500000e+000 1.437853e+001 -3.215989e+000
         vertex 4.500000e+000 1.437853e+001 -3.215989e+000
         vertex 4.500000e+000 1.380081e+001 -3.571703e+000
      endloop
   endfacet
   facet normal -8.672706e-017 -4.999475e-001 8.660557e-001
      outer loop
         vertex 6.500000e+000 1.437853e+001 -3.215989e+000
         vertex 4.500000e+000 1.380081e+001 -3.571703e+000
         vertex 6.500000e+000 1.380081e+001 -3.571703e+000
      endloop
   endfacet
   facet normal -6.921909e-017 -3.990209e-001 9.169418e-001
      outer loop
         vertex 6.500000e+000 1.380081e+001 -3.571703e+000
         vertex 4.500000e+000 1.380081e+001 -3.571703e+000
         vertex 4.500000e+000 1.317129e+001 -3.824667e+000
      endloop
   endfacet
   facet normal -6.008945e-017 -3.463921e-001 9.380898e-001
      outer loop
         vertex 6.500000e+000 1.380081e+001 -3.571703e+000
         vertex 4.500000e+000 1.317129e+001 -3.824667e+000
         vertex 6.500000e+000 1.317129e+001 -3.824667e+000
      endloop
   endfacet
   facet normal -4.134149e-017 -2.383175e-001 9.711873e-001
      outer loop
         vertex 6.500000e+000 1.317129e+001 -3.824667e+000
         vertex 4.500000e+000 1.317129e+001 -3.824667e+000
         vertex 4.500000e+000 1.250807e+001 -3.967602e+000
      endloop
   endfacet
   facet normal -3.172317e-017 -1.828716e-001 9.831368e-001
      outer loop
         vertex 6.500000e+000 1.317129e+001 -3.824667e+000
         vertex 4.500000e+000 1.250807e+001 -3.967602e+000
         vertex 6.500000e+000 1.250807e+001 -3.967602e+000
      endloop
   endfacet
   facet normal -1.227456e-017 -7.075802e-002 9.974935e-001
      outer loop
         vertex 6.500000e+000 1.250807e+001 -3.967602e+000
         vertex 4.500000e+000 1.250807e+001 -3.967602e+000
         vertex 4.500000e+000 1.183023e+001 -3.996396e+000
      endloop
   endfacet
   facet normal -2.444269e-018 -1.409025e-002 9.999007e-001
      outer loop
         vertex 6.500000e+000 1.250807e+001 -3.967602e+000
         vertex 4.500000e+000 1.183023e+001 -3.996396e+000
         vertex 6.500000e+000 1.183023e+001 -3.996396e+000
      endloop
   endfacet
   facet normal 1.714549e-017 9.883699e-002 9.951036e-001
      outer loop
         vertex 6.500000e+000 1.183023e+001 -3.996396e+000
         vertex 4.500000e+000 1.183023e+001 -3.996396e+000
         vertex 4.500000e+000 1.115728e+001 -3.910221e+000
      endloop
   endfacet
   facet normal 2.690495e-017 1.550965e-001 9.878993e-001
      outer loop
         vertex 6.500000e+000 1.183023e+001 -3.996396e+000
         vertex 4.500000e+000 1.115728e+001 -3.910221e+000
         vertex 6.500000e+000 1.115728e+001 -3.910221e+000
      endloop
   endfacet
   facet normal 4.607229e-017 2.655886e-001 9.640865e-001
      outer loop
         vertex 6.500000e+000 1.115728e+001 -3.910221e+000
         vertex 4.500000e+000 1.115728e+001 -3.910221e+000
         vertex 4.500000e+000 1.050857e+001 -3.711556e+000
      endloop
   endfacet
   facet normal 5.548016e-017 3.198213e-001 9.474779e-001
      outer loop
         vertex 6.500000e+000 1.115728e+001 -3.910221e+000
         vertex 4.500000e+000 1.050857e+001 -3.711556e+000
         vertex 6.500000e+000 1.050857e+001 -3.711556e+000
      endloop
   endfacet
   facet normal 7.367368e-017 4.246998e-001 9.053342e-001
      outer loop
         vertex 6.500000e+000 1.050857e+001 -3.711556e+000
         vertex 4.500000e+000 1.050857e+001 -3.711556e+000
         vertex 4.500000e+000 9.902771e+000 -3.406116e+000
      endloop
   endfacet
   facet normal 8.245931e-017 4.753455e-001 8.797992e-001
      outer loop
         vertex 6.500000e+000 1.050857e+001 -3.711556e+000
         vertex 4.500000e+000 9.902771e+000 -3.406116e+000
         vertex 6.500000e+000 9.902771e+000 -3.406116e+000
      endloop
   endfacet
   facet normal 9.915559e-017 5.715931e-001 8.205372e-001
      outer loop
         vertex 6.500000e+000 9.902771e+000 -3.406116e+000
         vertex 4.500000e+000 9.902771e+000 -3.406116e+000
         vertex 4.500000e+000 9.357302e+000 -3.002689e+000
      endloop
   endfacet
   facet normal 1.070662e-016 6.171949e-001 7.868103e-001
      outer loop
         vertex 6.500000e+000 9.902771e+000 -3.406116e+000
         vertex 4.500000e+000 9.357302e+000 -3.002689e+000
         vertex 6.500000e+000 9.357302e+000 -3.002689e+000
      endloop
   endfacet
   facet normal 1.217850e-016 7.020428e-001 7.121348e-001
      outer loop
         vertex 6.500000e+000 9.357302e+000 -3.002689e+000
         vertex 4.500000e+000 9.357302e+000 -3.002689e+000
         vertex 4.500000e+000 8.887857e+000 -2.512880e+000
      endloop
   endfacet
   facet normal 1.285931e-016 7.412888e-001 6.711863e-001
      outer loop
         vertex 6.500000e+000 9.357302e+000 -3.002689e+000
         vertex 4.500000e+000 8.887857e+000 -2.512880e+000
         vertex 6.500000e+000 8.887857e+000 -2.512880e+000
      endloop
   endfacet
   facet normal 1.409109e-016 8.122959e-001 5.832456e-001
      outer loop
         vertex 6.500000e+000 8.887857e+000 -2.512880e+000
         vertex 4.500000e+000 8.887857e+000 -2.512880e+000
         vertex 4.500000e+000 8.507944e+000 -1.950780e+000
      endloop
   endfacet
   facet normal 1.464205e-016 8.440570e-001 5.362535e-001
      outer loop
         vertex 6.500000e+000 8.887857e+000 -2.512880e+000
         vertex 4.500000e+000 8.507944e+000 -1.950780e+000
         vertex 6.500000e+000 8.507944e+000 -1.950780e+000
      endloop
   endfacet
   facet normal 1.559830e-016 8.991807e-001 4.375775e-001
      outer loop
         vertex 6.500000e+000 8.507944e+000 -1.950780e+000
         vertex 4.500000e+000 8.507944e+000 -1.950780e+000
         vertex 4.500000e+000 8.228490e+000 -1.332559e+000
      endloop
   endfacet
   facet normal 1.600357e-016 9.225433e-001 3.858936e-001
      outer loop
         vertex 6.500000e+000 8.507944e+000 -1.950780e+000
         vertex 4.500000e+000 8.228490e+000 -1.332559e+000
         vertex 6.500000e+000 8.228490e+000 -1.332559e+000
      endloop
   endfacet
   facet normal 1.665678e-016 9.601977e-001 2.793211e-001
      outer loop
         vertex 6.500000e+000 8.228490e+000 -1.332559e+000
         vertex 4.500000e+000 8.228490e+000 -1.332559e+000
         vertex 4.500000e+000 8.057536e+000 -6.760033e-001
      endloop
   endfacet
   facet normal 1.690470e-016 9.744897e-001 2.244324e-001
      outer loop
         vertex 6.500000e+000 8.228490e+000 -1.332559e+000
         vertex 4.500000e+000 8.057536e+000 -6.760033e-001
         vertex 6.500000e+000 8.057536e+000 -6.760033e-001
      endloop
   endfacet
   facet normal 1.723607e-016 9.935917e-001 1.130291e-001
      outer loop
         vertex 6.500000e+000 8.057536e+000 -6.760033e-001
         vertex 4.500000e+000 8.057536e+000 -6.760033e-001
         vertex 4.500000e+000 8.000000e+000 -9.797175e-016
      endloop
   endfacet
endsolid