solid gripperPad_Default_sldprt
   facet normal 1.000000e+000 9.637353e-017 0.000000e+000
      outer loop
         vertex 1.000000e+001 9.000000e+000 2.000000e+000
         vertex 1.000000e+001 -9.000000e+000 2.000000e+000
         vertex 1.000000e+001 9.000000e+000 -2.000000e+000
      endloop
   endfacet
   facet normal 1.000000e+000 9.637353e-017 0.000000e+000
      outer loop
         vertex 1.000000e+001 9.000000e+000 -2.000000e+000
         vertex 1.000000e+001 -9.000000e+000 2.000000e+000
         vertex 1.000000e+001 -9.000000e+000 -2.000000e+000
      endloop
   endfacet
   facet normal 0.000000e+000 1.000000e+000 0.000000e+000
      outer loop
         vertex -1.000000e+001 9.000000e+000 2.000000e+000
         vertex 1.000000e+001 9.000000e+000 2.000000e+000
         vertex -1.000000e+001 9.000000e+000 -2.000000e+000
      endloop
   endfacet
   facet normal 0.000000e+000 1.000000e+000 0.000000e+000
      outer loop
         vertex -1.000000e+001 9.000000e+000 -2.000000e+000
         vertex 1.000000e+001 9.000000e+000 2.000000e+000
         vertex 1.000000e+001 9.000000e+000 -2.000000e+000
      endloop
   endfacet
   facet normal -1.000000e+000 0.000000e+000 0.000000e+000
      outer loop
         vertex -1.000000e+001 -9.000000e+000 2.000000e+000
         vertex -1.000000e+001 9.000000e+000 2.000000e+000
         vertex -1.000000e+001 -9.000000e+000 -2.000000e+000
      endloop
   endfacet
   facet normal -1.000000e+000 0.000000e+000 0.000000e+000
      outer loop
         vertex -1.000000e+001 -9.000000e+000 -2.000000e+000
         vertex -1.000000e+001 9.000000e+000 2.000000e+000
         vertex -1.000000e+001 9.000000e+000 -2.000000e+000
      endloop
   endfacet
   facet normal 0.000000e+000 -1.000000e+000 0.000000e+000
      outer loop
         vertex 1.000000e+001 -9.000000e+000 2.000000e+000
         vertex -1.000000e+001 -9.000000e+000 2.000000e+000
         vertex 1.000000e+001 -9.000000e+000 -2.000000e+000
      endloop
   endfacet
   facet normal 0.000000e+000 -1.000000e+000 0.000000e+000
      outer loop
         vertex 1.000000e+001 -9.000000e+000 -2.000000e+000
         vertex -1.000000e+001 -9.000000e+000 2.000000e+000
         vertex -1.000000e+001 -9.000000e+000 -2.000000e+000
      endloop
   endfacet
   facet normal 0.000000e+000 0.000000e+000 1.000000e+000
      outer loop
         vertex -1.000000e+001 9.000000e+000 2.000000e+000
         vertex -1.000000e+001 -9.000000e+000 2.000000e+000
         vertex 1.000000e+001 9.000000e+000 2.000000e+000
      endloop
   endfacet
   facet normal 0.000000e+000 0.000000e+000 1.000000e+000
      outer loop
         vertex 1.000000e+001 9.000000e+000 2.000000e+000
         vertex -1.000000e+001 -9.000000e+000 2.000000e+000
         vertex 1.000000e+001 -9.000000e+000 2.000000e+000
      endloop
   endfacet
   facet normal 0.000000e+000 0.000000e+000 -1.000000e+000
      outer loop
         vertex -1.000000e+001 -9.000000e+000 -2.000000e+000
         vertex -1.000000e+001 9.000000e+000 -2.000000e+000
         vertex 1.000000e+001 -9.000000e+000 -2.000000e+000
      endloop
   endfacet
   facet normal 0.000000e+000 0.000000e+000 -1.000000e+000
      outer loop
         vertex 1.000000e+001 -9.000000e+000 -2.000000e+000
         vertex -1.000000e+001 9.000000e+000 -2.000000e+000
         vertex 1.000000e+001 9.000000e+000 -2.000000e+000
      endloop
   endfacet
endsolid